<svg xmlns="http://www.w3.org/2000/svg" width="48.873" height="50.475" viewBox="0 0 48.873 50.475">
  <g id="Group_16" data-name="Group 16" transform="translate(-291.148 -62.125)">
    <path id="Path_290" data-name="Path 290" d="M.2-13.45a2.938,2.938,0,0,0,1.775,1.3,2.6,2.6,0,0,0,.375.05c.725,0,.325-.85-.275-1.3.05,0-.075-.175.1-.425a9.617,9.617,0,0,0,.6-1.25,37,37,0,0,1,12.95-14.25c3.225-2.05,7.3-3.9,11.225-3.9a6.289,6.289,0,0,1,3.45.875c1.975,1.3,2.4,4.05,2.325,6.225-.2,7.875-7.725,14.85-15.05,16.55-.35.075-1.6-.075-1.95,0,1.325-4.575,3.272-9.059,4.6-13.634.425-1.425,1.1-2.741,1.528-4.141a1.585,1.585,0,0,0-1.275-1.75.708.708,0,0,0-.6.35c-.3.425-.6.875-.875,1.3-.225.325.6-.25.875.1-1.55,5.35-3.8,11.725-5.35,17.075a2.452,2.452,0,0,0-1.25-.4A1.035,1.035,0,0,0,12.3-9.4c.1.875.853.3,1.678.552-.875,3-1.828,7.073-2.7,10.073-.4,1.425-.306,2.868-.706,4.293-.225.725.256,1.732.881,1.732.2,0-.075-.151,0-.426,1.3-4.5,2.537-9.161,3.837-13.686C18.762-1.687,20.925.375,25.3.375c4.075,0,9.55-3.95,11.575-7.475.3-.525.1-1.15-.25-1.15A.521.521,0,0,0,36.25-8C33.125-3.9,27.9-1.575,25.025-1.575c-4,0-7.5-4.623-9.3-7.273,8.25-.625,18.4-7.127,19.05-15.6.25-2.925-.4-6.025-2.625-8.075a9.112,9.112,0,0,0-6.425-2.35c-7.775,0-16.2,6.475-20.85,12.225A35.009,35.009,0,0,0,.725-16.2C.275-15.325-.325-14.4.2-13.45Z" transform="translate(303 97)" fill="#fff"/>
    <path id="Path_291" data-name="Path 291" d="M2.025,4.025A25.212,25.212,0,0,1,5.5-2.5a113.355,113.355,0,0,1,7.45-10.125,106.094,106.094,0,0,1,12.575-1A117.674,117.674,0,0,0,22.275.025c-.525,3-1.025,6.3-.35,9.325a1.535,1.535,0,0,0,1.125,1.225.55.55,0,0,0,.2.025.624.624,0,0,0,.65-.775c-.625-2.875-.125-6,.35-8.85a109.515,109.515,0,0,1,3.6-14.625h2.325a1.618,1.618,0,0,0,1.4,1.375.806.806,0,0,0,.45-.15c.55-.375,1.125-.75,1.675-1.15.75-.525-.375-1.75-.95-1.875a24.539,24.539,0,0,0-4.275-.25c1.575-5.125,3.3-10.2,5.075-15.25.4-1.15,1.8-4.025-.65-4.05-1.825-.025-3.825,1.85-5.1,2.925C21.95-27.2,16.925-21.25,12.15-15.375c-.175.225-.35.425-.525.65a31.609,31.609,0,0,0-7.2,1.775c-1.5.6-3.25,1.525-3.15,3.35a1.563,1.563,0,0,0,1.4,1.25c.35,0,.6-.225.575-.775.4-1.7,4.775-2.65,6.275-2.95C7.7-9.725,5.95-7.3,4.275-4.85,2.725-2.55.95-.05.175,2.625c-.2.75.775,1.775,1.4,1.775A.444.444,0,0,0,2.025,4.025ZM14.95-15.1A124.972,124.972,0,0,1,28.075-29.175a28.136,28.136,0,0,1,3.55-2.975c-.15.45-.325.9-.475,1.35-1.725,5.025-3.475,10.05-5,15.125C22.425-15.625,18.65-15.45,14.95-15.1ZM32.375-34.4v.05C32.35-34.35,32.375-34.375,32.375-34.4Z" transform="translate(291 102)" fill="#fff"/>
  </g>
</svg>
