<svg xmlns="http://www.w3.org/2000/svg" width="34" height="34.004" viewBox="0 0 34 34.004">
  <path id="Icon_awesome-github" data-name="Icon awesome-github" d="M11.372,27.942c0,.141-.158.253-.356.253-.226.021-.384-.091-.384-.253,0-.141.158-.253.356-.253C11.194,27.668,11.372,27.78,11.372,27.942ZM9.24,27.626c-.048.141.089.3.295.345a.318.318,0,0,0,.425-.141c.041-.141-.089-.3-.295-.366A.348.348,0,0,0,9.24,27.626Zm3.03-.12c-.2.049-.336.183-.315.345.021.141.2.232.4.183s.336-.183.315-.323S12.469,27.485,12.27,27.506ZM16.781.563C7.273.563,0,7.966,0,17.719A17.6,17.6,0,0,0,11.619,34.537c.877.162,1.186-.394,1.186-.851,0-.436-.021-2.841-.021-4.317,0,0-4.8,1.055-5.806-2.1,0,0-.781-2.046-1.906-2.573,0,0-1.57-1.1.11-1.083a3.6,3.6,0,0,1,2.646,1.814,3.573,3.573,0,0,0,5,1.47,3.947,3.947,0,0,1,1.1-2.37c-3.832-.436-7.7-1.005-7.7-7.77a5.4,5.4,0,0,1,1.618-4.141A6.8,6.8,0,0,1,8.02,7.847c1.433-.457,4.73,1.9,4.73,1.9a15.8,15.8,0,0,1,8.61,0s3.3-2.363,4.73-1.9a6.8,6.8,0,0,1,.178,4.774,5.53,5.53,0,0,1,1.769,4.141c0,6.785-4.037,7.327-7.869,7.77a4.216,4.216,0,0,1,1.165,3.263c0,2.37-.021,5.3-.021,5.878,0,.457.315,1.013,1.186.851A17.444,17.444,0,0,0,34,17.719,17.014,17.014,0,0,0,16.781.563ZM6.663,24.813c-.089.07-.069.232.048.366.11.112.267.162.356.07.089-.07.069-.232-.048-.366C6.91,24.771,6.752,24.722,6.663,24.813Zm-.74-.57c-.048.091.021.2.158.274a.2.2,0,0,0,.295-.049c.048-.091-.021-.2-.158-.274C6.08,24.152,5.971,24.173,5.923,24.244Zm2.221,2.5c-.11.091-.069.3.089.436.158.162.356.183.446.07.089-.091.048-.3-.089-.436C8.438,26.655,8.233,26.634,8.144,26.747Zm-.781-1.034c-.11.07-.11.253,0,.415s.295.232.384.162a.327.327,0,0,0,0-.436C7.65,25.692,7.472,25.622,7.362,25.713Z" transform="translate(0 -0.563)" fill="rgba(255,255,255,0.49)"/>
</svg>
