<svg xmlns="http://www.w3.org/2000/svg" xmlns:xlink="http://www.w3.org/1999/xlink" width="744" height="740.549" viewBox="0 0 744 740.549">
  <defs>
    <clipPath id="clip-path">
      <path id="Path_210" data-name="Path 210" d="M374.278,0C545.3,0,683.936,138.639,683.936,309.659c0,114.341-62.052,214.266-154.3,267.935-.174.1,0,.313,0,.313s7.152,23.195,1.99,25.809c-10.7,5.421-44.7,3.644-54.983,2.268-1.607-.215-2.327-2.74-2.327-2.74s-1.85.257-2.245.391c-31.029,10.54-62.931,15.681-97.8,15.681-22.551,0-41.926-1.664-61.676-5.828a18.4,18.4,0,0,1-1.717-.767s-8.622,2.964-18.821,5.346-11.7,3.049-21.554,4.178-8.3.546-8.3.546L156.339,667.1-16.721,595.214-26.063,382.14s90.683-55.356,90.683-72.482C64.619,138.639,203.258,0,374.278,0Z" transform="translate(26.063)" fill="#fff"/>
    </clipPath>
  </defs>
  <g id="Group_98" data-name="Group 98" transform="translate(-1060 -140)">
    <g id="Group_85" data-name="Group 85" transform="translate(1175.063 1099.451)">
      <circle id="Ellipse_3" data-name="Ellipse 3" cx="309.659" cy="309.659" r="309.659" transform="translate(-24.381 -886)" fill="rgba(3,3,74,0.47)"/>
      <g id="Mask_Group_1" data-name="Mask Group 1" transform="translate(-115.063 -886)" clip-path="url(#clip-path)">
        <g id="Nerd-amico_2_" data-name="Nerd-amico (2)" transform="translate(7.179 185.596)">
          <g id="freepik--Character--inject-1--inject-32" transform="translate(0 0)">
            <path id="Path_269" data-name="Path 269" d="M214,159.83a62.106,62.106,0,0,0-.708,38.335,15.713,15.713,0,0,1,6.433-1.7,8.007,8.007,0,0,1,7.463,3.685c1.287,3.352-1.769,6.567-3.056,9.919-3.946,15.589-5.179,31.6-9.811,46.909,23.183-24.427,37.885-57.012,41.56-92.116C242.947,162.948,227.249,161.6,214,159.83Z" transform="translate(210.005 -119.007)" fill="#572008"/>
            <path id="Path_73" data-name="Path 73" d="M327.5,150.626l-8.834,16.047L241.57,306.723,288.123,331.5l71.393-112.911Z" transform="translate(-13.431 49.196)" fill="#ffd8d8"/>
            <path id="Path_74" data-name="Path 74" d="M345.139,143.671c-19.342-3.86-48.622-4.881-67.661,33.325s-16.136,35.967-16.136,35.967,8.714,27.577,43.417,34.189h28.015Z" transform="translate(28.261 27.501)" fill="#3362cc"/>
            <rect id="Rectangle_1" data-name="Rectangle 1" width="39.734" height="68.021" transform="translate(291.74 867.899)" fill="#fdd0d0"/>
            <path id="Path_75" data-name="Path 75" d="M267.937,389.177,228.2,390.534l-1.983-71.987,39.7-1.357Z" transform="translate(-51.489 462.16)" fill="#fdd0d0"/>
            <path id="Path_76" data-name="Path 76" d="M304.625,360.644v-5.671c-3.792,1.635-12.63,35.35-28.391,49.719-12.526,11.447-29.609,24.633-33.958,37.368-4.523,13.256,23.8,20.6,35.489,18.51,13.6-2.4,37.194-11.969,43.109-20.876s8.7-21.954,13.5-28.461,15.9-13.917,18.51-21.328c1.427-4.14-.278-13.187-2.261-20.876-1.844-6.959-3.862-14.752-6.263-14.091v4.314c-2.888,3.2-10.855,6.367-19.867,6.715C318.681,366.246,304.59,365.1,304.625,360.644Z" transform="translate(-12.884 555.652)" fill="#263238"/>
            <path id="Path_77" data-name="Path 77" d="M293.981,336.329c-2.053,0-3.723,2.992-8.281,7.9a86.424,86.424,0,0,1-23.381,16.8c-14.891,7.481-43.735,18.928-56.887,24.877-8.176,3.688-7.794,13.569.661,19.206s28.843,9.672,53.373,4.175c13.326-2.992,30.722-15.309,41.752-14.648s31.592.522,39.7-5.08,4.871-17.4,2.575-27.834c-2.505-11.2-6.089-28.356-9.812-27.591v3.479c-4.767,7.237-29.087,10.194-39.595,4.871Z" transform="translate(-117.685 504.118)" fill="#263238"/>
            <path id="Path_78" data-name="Path 78" d="M570.011,255.361c8.7,61.41-3.027,73.066-61.375,132.005-31.314,31.627-81.938,78.006-81.938,78.006s.731,19.623,1.113,63.6c.383,38.725-15.8,164.745-15.8,164.745s-26.373,11.1-44.466-.418c0,0-8.176-93.767-12.6-142.652-5.984-66.107-9.116-99.438-5.741-113.669,2.992-12.56,62.384-87.574,76.093-108.589L299.077,401.736a430.816,430.816,0,0,1,3.688,56.052c-1.392,52.572-7.863,157.578-7.863,157.578s-28.878,12.908-43.213,1.774c0,0-36.359-229.634-36.359-248.492,0-28.635,124.35-114.121,147.905-134.023C376.666,223.282,391.627,211,391.627,211Z" transform="translate(-78.488 198.883)" fill="#3c464b"/>
            <path id="Path_79" data-name="Path 79" d="M365.629,274.08a91.263,91.263,0,0,1-28.844-41.16,207.087,207.087,0,0,0,4.488,31.314c3.479,13.639-101.874,83.156-101.874,83.156Z" transform="translate(-18.811 253.229)" fill="#313d43"/>
            <path id="Path_80" data-name="Path 80" d="M436.8,176.447s13.917,11.412,13.917,47.458v77.832L448.73,432.628c-27.835,30.3-153.09,18.823-184.09-47.284,0,0,.244-138.163.244-169.129s17.4-71.152,64.715-73.935L390.9,156.545Z" transform="translate(43.766 28.504)" fill="#3362cc"/>
            <path id="Path_208" data-name="Path 208" d="M120.77,144.172l8.513.551a1.287,1.287,0,0,1,1.3.592c.274.441,1.076,1.15.774,1.573-3.479,4.836-6.338,16,4.414,22.536-19.4-.4-20.925,21.191-20.925,21.191s-15.509-20.993,4.74-45.661c.484-.565.454-.649,1.186-.781Z" transform="translate(247.18 25.719)" fill="#fff"/>
            <path id="Path_83" data-name="Path 83" d="M387.81,183.363c3.479,2.053,2.928-4.029,7.173-8.483s17.767-8.011,24.691,6.5-.272,31.594-11.2,35.039c-18.858,5.915-21.711-6.193-21.711-6.193l-1.427,68.021c-16.248,18.162-71.813,13.917-61.34-1.809V251.007s-28.374,2.664-42.935-20.084c-14.818-23.143-15.826-68.336-12.768-93.139,6.3-51.981,66.733-52.5,99.369-31.975S387.81,183.363,387.81,183.363Z" transform="translate(49.365 -93.194)" fill="#ffd8d8"/>
            <path id="Path_209" data-name="Path 209" d="M283.31,159.463s30.085-5.323,40.871-11.064c6.364-3.324,12.493-9.855,15.877-16.188-1.637,6.308-4.176,9.121-8.142,14.293C323.983,156.628,283.31,164.2,283.31,164.2Z" transform="translate(89.759 -1.699)" fill="#ffbaba"/>
            <path id="Path_90" data-name="Path 90" d="M285.461,121.5a6.228,6.228,0,1,0,6.193-6.472A6.332,6.332,0,0,0,285.461,121.5Z" transform="translate(95.384 -39.057)" fill="#496f35"/>
            <path id="Path_91" data-name="Path 91" d="M288.32,112.4l13.291,7.307a8,8,0,0,0-3.1-10.438A7.411,7.411,0,0,0,288.32,112.4Z" transform="translate(102.476 -55.633)" fill="#572008"/>
            <path id="Path_93" data-name="Path 93" d="M270.13,119.925l12.108-9.29A7.307,7.307,0,0,0,271.8,109a8,8,0,0,0-1.67,10.925Z" transform="translate(53.793 -57.73)" fill="#572008"/>
            <path id="Path_94" data-name="Path 94" d="M270.631,120.992a6.228,6.228,0,1,0,6.193-6.471,6.332,6.332,0,0,0-6.193,6.471Z" transform="translate(58.616 -40.321)" fill="#496f35"/>
            <path id="Path_96" data-name="Path 96" d="M478.146,237.349v3.479a10.124,10.124,0,0,1-5.08,8.768l-96.62,55.669a10.125,10.125,0,0,1-10.125,0L189.05,202.938a10.125,10.125,0,0,1-5.08-8.768V191.7l187.4,108.172Z" transform="translate(-156.24 151.032)" fill="#c6c6c6"/>
            <path id="Path_97" data-name="Path 97" d="M478.146,237.349v3.479a10.124,10.124,0,0,1-5.08,8.768l-96.62,55.669a10.125,10.125,0,0,1-10.125,0L189.05,202.938a10.125,10.125,0,0,1-5.08-8.768V191.7l187.4,108.172Z" transform="translate(-156.273 150.687)" opacity="0.6"/>
            <path id="Path_98" data-name="Path 98" d="M184,235.527l105.11-60.679a6.054,6.054,0,0,1,6.054,0L477.48,280.132a1.357,1.357,0,0,1,0,2.331L371.4,343.7Z" transform="translate(-156.165 107.24)" fill="#b1b1b1"/>
            <path id="Path_99" data-name="Path 99" d="M184,235.527l105.11-60.679a6.054,6.054,0,0,1,6.054,0L477.48,280.132a1.357,1.357,0,0,1,0,2.331L371.4,343.7Z" transform="translate(-156.27 107.193)" fill="#4a4a4a" opacity="0.5"/>
            <path id="Path_100" data-name="Path 100" d="M356.447,311.727l56.678-32.706L247.371,183.34,190.38,215.872Z" transform="translate(-140.347 130.305)" fill="#263238"/>
            <path id="Path_101" data-name="Path 101" d="M302.6,214.852l-1.044.592-27.8,16.04-49.406-28.53-1.009-.591,28.809-16.631Z" transform="translate(-58.629 136.23)" fill="#263238"/>
            <path id="Path_102" data-name="Path 102" d="M300.836,214.6l-27.8,16.04L223.63,202.11l27.8-16.04Z" transform="translate(-57.91 137.073)" fill="#263238"/>
            <path id="Path_103" data-name="Path 103" d="M371.366,299.882v6.75a10.09,10.09,0,0,1-5.045-1.357L189.05,202.948a10.125,10.125,0,0,1-5.08-8.768v-2.47Z" transform="translate(-156.24 151.057)" opacity="0.7"/>
            <path id="Path_104" data-name="Path 104" d="M388.238,391.972a11.9,11.9,0,0,1-10.438-.8L201.33,289.3a11.969,11.969,0,0,1-5.845-8.385l-19.31-115.235a12.282,12.282,0,0,1-.174-1.948,12.073,12.073,0,0,1,3.479-8.559L362.874,261.08a8.942,8.942,0,0,1,4.488,6.228Z" transform="translate(-176 60.463)" fill="#8d8d8d"/>
            <path id="Path_105" data-name="Path 105" d="M388.238,391.972a11.9,11.9,0,0,1-10.438-.8L201.33,289.3a11.969,11.969,0,0,1-5.845-8.385l-19.31-115.235a12.282,12.282,0,0,1-.174-1.948,12.073,12.073,0,0,1,3.479-8.559L362.874,261.08a8.942,8.942,0,0,1,4.488,6.228Z" transform="translate(-176 60.463)" fill="#848484" opacity="0.5"/>
            <path id="Path_106" data-name="Path 106" d="M388.5,391.79l-1.183.7a12.155,12.155,0,0,1-1.67.8L364.769,268.622a8.942,8.942,0,0,0-4.314-6.228L177.06,156.484a11.793,11.793,0,0,1,2.435-1.844L363.273,260.724a8.942,8.942,0,0,1,4.314,6.228Z" transform="translate(-173.372 59.149)" fill="#e0e0e0"/>
            <path id="Path_107" data-name="Path 107" d="M230.564,210.8c-1.287-7.689-9.255-17.953-17.779-22.859s-14.4-2.679-13.082,5.045,9.255,17.953,17.779,22.894S231.886,218.527,230.564,210.8Z" transform="translate(-117.695 135.269)" fill="#fff"/>
            <path id="Path_108" data-name="Path 108" d="M269.919,258.077a62.18,62.18,0,0,0-2.888-14.683c-2.714-8.524-10.786-41.369-29.226-46.31a13.083,13.083,0,0,0-6.75-.209c-5.115,1.392-7.446,6.715-8.455,11.482a80.266,80.266,0,0,0,0,21.224,41.545,41.545,0,0,0-9.846-8.246,20.146,20.146,0,0,0-11.308-4.036,3.479,3.479,0,0,0-2.957,1.392c-.661,1.218,0,2.749,1.044,3.827,1.844,2.227,4.106,4.105,5.95,6.332a65.037,65.037,0,0,1,4,6.054c2.331,3.758,4.941,7.307,7.55,10.89A76.2,76.2,0,0,0,235.613,265a70.04,70.04,0,0,0,27.834,11.1c13.465,1.67,26.547,1.461,35.037-1.5Z" transform="translate(-120.9 163.009)" fill="#ffd8d8"/>
            <path id="Path_109" data-name="Path 109" d="M467.62,153.1c-12.421-6.4-30.583,18.962-24.807,45.475S477.049,318.3,477.049,318.3,348.489,329.783,337.564,331.14c-7.62.9-16.144-2.957-23.207-5.289-9.6-3.2-19.31-5.428-28.774-8.907a12.213,12.213,0,0,0-5.254-1.113,4.141,4.141,0,0,0-3.862,3.236,5.5,5.5,0,0,0,.8,3.1,40.6,40.6,0,0,0,13.256,15.448,59.149,59.149,0,0,1,7.794,5.5c1.5,1.5,4.8,5.636,3.479,7.9l-51.076,29.4s11.76,10.229,54.347-1.7a278.791,278.791,0,0,0,44.779-15.9s151.489,6.3,178.871-1.983c9.672-2.957,13.152-9.812,6.611-40.986-7.481-36.115-28.948-101.979-33.819-119.375C490.827,162.776,488.287,163.646,467.62,153.1Z" transform="translate(9.254 52.857)" fill="#ffd8d8"/>
            <path id="Path_110" data-name="Path 110" d="M328.307,150.84s20.528,6.242,29.365,18.8,23.552,62.622,23.552,62.622c-18.039,16.261-42.748,35.236-65.894,30.9,0,0-7.064-24.713-9.986-47.16C300.16,181.221,315.886,153.848,328.307,150.84Z" transform="translate(142.165 49.727)" fill="#3362cc"/>
            <g id="Group_9" data-name="Group 9" transform="matrix(0.999, -0.035, 0.035, 0.999, 308.014, 60.988)">
              <path id="Path_261" data-name="Path 261" d="M21.809,42.287a19.472,19.472,0,0,0,18.752-15.22L45.425,4.69,0,0,0,22.9A19.5,19.5,0,0,0,17.267,41.961h2.271Zm15.44-31.614L34.007,25.635a12.459,12.459,0,0,1-13.5,9.821H18.239A12.548,12.548,0,0,1,7.011,23.029l0-15.352Z" transform="translate(2.213 0) rotate(3)" fill="#062b7c"/>
              <path id="Path_262" data-name="Path 262" d="M21.8,42.285A19.479,19.479,0,0,0,40.622,27.062l4.8-22.378L0,0V22.9a19.5,19.5,0,0,0,17.261,19.06h2.271ZM37.248,10.6,34,25.631a12.527,12.527,0,0,1-13.5,9.823H18.234A12.544,12.544,0,0,1,7.008,23.094V7.741Z" transform="translate(55.401 8.013)" fill="#062b7c"/>
              <rect id="Rectangle_30" data-name="Rectangle 30" width="15.382" height="6.77" transform="matrix(-0.993, -0.122, 0.122, -0.993, 59.493, 15.333)" fill="#062b7c"/>
              <path id="Path_263" data-name="Path 263" d="M43.44,16.04l5.5-3.092L17.2,2.535.974,0,0,6.636l15.7,2.4Z" transform="translate(90.898 11.746) rotate(-3)" fill="#062b7c"/>
            </g>
            <path id="Path_95" data-name="Path 95" d="M295.779,114.95l-.7,37.611-22.233-4.906Z" transform="translate(64.121 -39.255)" fill="#ffbaba"/>
            <path id="Path_270" data-name="Path 270" d="M245.74,199.092l-9.522,10.051a5.9,5.9,0,0,1-4.72,1.912l-6.714-.936a2.6,2.6,0,0,1-1.994-2.279l1.994-12.234s.861-1.336,3.857-2.822c2.057-1.022,6.843-2.257,9.18-1.713C243.06,192.29,245.74,199.092,245.74,199.092Z" transform="translate(145.056 4.153)" fill="#062b7c"/>
            <path id="Path_271" data-name="Path 271" d="M258.541,314.155s-12.615,32.35-17.375,28.484S226.11,317.248,226.11,316.8a446.394,446.394,0,0,1,24.985-123.5l7.691.977a1002.181,1002.181,0,0,0-.244,119.878Z" transform="translate(118.501 20.24)" fill="#062b7c"/>
            <path id="Path_1405" data-name="Path 1405" d="M352.446,123.58l-23.816,8.257a12.386,12.386,0,0,0,15.819,8.257,13.038,13.038,0,0,0,8-16.514Z" transform="translate(27.716 -1.648)" fill="#b16668"/>
            <path id="Path_1406" data-name="Path 1406" d="M344.263,124.87a13.864,13.864,0,0,0-13.6,11.169,12.429,12.429,0,0,0,7-.261,13.038,13.038,0,0,0,8.692-10.734,13.032,13.032,0,0,0-2.086-.174Z" transform="translate(34.508 2.669)" fill="#f28f8f"/>
            <path id="Path_1407" data-name="Path 1407" d="M359.277,127.369a5.339,5.339,0,1,1-5.339-5.339,5.339,5.339,0,0,1,5.339,5.339Z" transform="translate(94.644 -14.063)" fill="#062b7c"/>
          </g>
          <path id="Path_207" data-name="Path 207" d="M1.488,39.738,8.1,43.043a6.437,6.437,0,0,0,6.68-.557C30.072,31.394,40.988,28.108,65.339,30.8,52.047,24.467,53.632,0,53.632,0S13.77,10.442.375,35.7a2.992,2.992,0,0,0,1.113,4.036Z" transform="translate(447.515 226.955) rotate(-179)" fill="#fff"/>
        </g>
      </g>
      <g id="Group_10" data-name="Group 10" transform="matrix(0.995, -0.105, 0.105, 0.995, 199.378, -717.936)">
        <path id="Path_267" data-name="Path 267" d="M17.5,63.5C9.969,62.916,0,58.739,0,51.206s3.438-10.395,6.232-16.6C9.971,25.443,15,24.025,20.826,15.931,26.672,7.8,31.444,3.962,41.309,1.23c9.9-2.282,20.347-1.581,28.97,3.743,8.714,4.537,18.778,3.665,28.629,4.653a69.366,69.366,0,0,1,27.876,8.893,23.051,23.051,0,0,1,10.749,24.516C71.4,25.891,102.342,70.815,17.5,63.5Z" transform="translate(0 0)" fill="#572003"/>
        <path id="Path_268" data-name="Path 268" d="M82.54,56.035A34.74,34.74,0,0,0,42.653,3.6C28.886,8.3,14.411,1.93,0,0,9.843,10.486-.244,25.429,2.168,37.244S29.8,52.557,33.953,54.827,63.24,59.123,82.54,56.035Z" transform="translate(66.673 29.224)" fill="#572003"/>
      </g>
    </g>
    <path id="Path_292" data-name="Path 292" d="M100,0A100,100,0,1,1,0,100,100,100,0,0,1,100,0Z" transform="translate(1060 340)" fill="rgba(3,3,74,0.73)"/>
    <circle id="Ellipse_5" data-name="Ellipse 5" cx="100" cy="100" r="100" transform="translate(1604 608)" fill="rgba(3,3,74,0.73)"/>
    <g id="Group_14" data-name="Group 14" transform="translate(1658.097 654.038)">
      <path id="Path_276" data-name="Path 276" d="M11.536,34.148,23.988,46.6H57.22L28.156,17.537Z" transform="translate(32.283 61.324)" fill="#0d47a1"/>
      <path id="Path_277" data-name="Path 277" d="M7.849,30.441,24.442,13.848,41.036,30.441l-16.593,16.6Z" transform="translate(19.39 48.424)" fill="#42a5f5"/>
      <path id="Path_278" data-name="Path 278" d="M15.24,17.536h0Z" transform="translate(45.204 61.321)" fill="#5a9fd7"/>
      <path id="Path_279" data-name="Path 279" d="M28.786,17.677,36.2,25.142,18.614,31.217l-4.749,4.749-2.311-2.311-.018,0L23.988,46.111H57.22Z" transform="translate(32.283 61.814)" fill="#0b3e8c"/>
      <path id="Path_280" data-name="Path 280" d="M41.027,17.536H7.862l-.013.009,16.593,16.6,16.593-16.6Z" transform="translate(19.39 61.321)" fill="#3990d5"/>
      <path id="Path_281" data-name="Path 281" d="M89.5,49.794H56.266L43.819,62.241,60.43,78.852h.009L89.5,49.794ZM89.5,0H56.266L2.3,53.958l16.62,16.62L89.5,0Z" fill="#68b7f7"/>
      <path id="Path_282" data-name="Path 282" d="M85.672,28.813h-29.4L43.82,41.26,60.431,57.871h.009L85.672,32.639V28.813ZM62.518,6H29.282L2.3,32.977,18.921,49.6,62.518,6Z" transform="translate(0.003 20.981)" fill="#5b9fd7"/>
    </g>
    <circle id="Ellipse_6" data-name="Ellipse 6" cx="100" cy="100" r="100" transform="translate(1504 140)" fill="rgba(3,3,74,0.73)"/>
    <g id="Group_15" data-name="Group 15" transform="translate(1543.799 183.375)">
      <path id="Path_283" data-name="Path 283" d="M1.034,23.611l-.005-.04-.005-.015Z" transform="translate(4.113 87.988)"/>
      <path id="Path_284" data-name="Path 284" d="M0,1.651,60.2,105.493,120.4,1.651H96.322L60.2,63.954,23.78,1.651Z" fill="#41b883"/>
      <path id="Path_285" data-name="Path 285" d="M4.74,1.651l36.422,62.6,36.121-62.6H55.008L41.162,25.727,27.015,1.651Z" transform="translate(19.04)" fill="#35495e"/>
      <path id="Path_286" data-name="Path 286" d="M23.78,1.651H0L60.2,105.493V64.255Z" fill="#39a072"/>
      <path id="Path_287" data-name="Path 287" d="M27.015,1.651H4.74l36.422,62.6V25.727Z" transform="translate(19.04)" fill="#2e4052"/>
    </g>
    <g id="g5193" transform="translate(1124 279.6)">
      <path id="path5113" d="M2.7,198.213-5,113.4l83,.032-7.64,84.716L36.435,207.73Zm61.408-4.629,6.442-72.641H36.565l.259,80.119Zm-30.72-61.991H25.138l-.1,43.475L9.017,170.7l.032,9.938,24.343,6.571Z" transform="translate(0 0)" fill="#d4b830"/>
      <path id="path5159" d="M60.362,224.878c-1.068-.324-6.345-1.748-11.718-3.2L38.9,219.051v-4.888c0-4.791,0-4.888.486-4.726.259.1,3.82,1.068,7.9,2.2l7.413,2.039.065-21.689.065-21.689H62.92v27.58c0,21.915-.065,27.58-.291,27.58C62.466,225.428,61.43,225.169,60.362,224.878Z" transform="translate(-29.689 -38.481)" fill="rgba(235,235,235,0)" opacity="0.986"/>
      <path id="path5157" d="M38.332,218.71l-.032-9.938s10.229,2.881,16.024,4.37l.1-43.442h8.255v55.581Z" transform="translate(-29.283 -38.075)" fill="#132638" opacity="0.986"/>
      <path id="path5117" d="M123.4,136.6h33.99l-6.442,72.641L123.4,216.719Zm25.8,60.47,2.234-27.16-16.509,1.845v-14.5l17.61-.065.712-9.906-26.577.129.356,36.062,16.056-2.752-.227,8.028-16.186,4.305.162,9.841Z" transform="translate(-86.835 -15.69)" fill="#fdd83c"/>
    </g>
  </g>
</svg>
