<svg xmlns="http://www.w3.org/2000/svg" width="314.002" height="214.985" viewBox="0 0 314.002 214.985">
  <path id="Path_591" data-name="Path 591" d="M312.744,100.437C310.5,98.2,281.768,62,276.919,56.023c-5.225-5.971-7.465-4.851-10.815-4.479s-39.561,6.719-43.666,7.091c-4.105.746-6.719,2.24-4.105,5.971,2.24,3.359,26.137,36.952,31.351,44.786l-95.171,22.757L79.109,5.638C76.124,1.16,75.376-.333,68.659.041S9.315,4.892,5.584,4.892c-3.731.374-7.843,1.866-4.105,10.824S64.926,153.06,66.42,156.793s5.971,9.7,16.049,7.465c10.45-2.614,46.28-11.942,66.061-17.169,10.45,18.661,31.351,56.73,35.456,62.327,5.225,7.465,8.956,5.971,16.8,3.731,6.345-1.866,97.787-34.7,101.89-36.576s6.719-2.985,3.731-7.091c-2.24-2.985-26.137-35.456-38.815-52.251,8.585-2.24,39.561-10.45,42.921-11.57,3.731-1.127,4.479-2.985,2.24-5.225Zm-172.8,35.447c-1.127.374-54.491,13.068-57.1,13.81-2.985.746-2.985.374-2.985-.746-.746-1.122-63.447-130.992-64.567-132.482-.746-1.494-.746-2.985,0-2.985S65.672,9,67.165,9c1.866,0,1.494.374,2.24,1.494,0,0,69.792,120.544,70.912,122.417,1.494,1.866.746,2.614-.374,2.985Zm150.034,28c.746,1.494,1.866,2.24-1.127,2.985-2.611,1.127-89.946,30.6-91.812,31.351s-2.985,1.127-5.225-2.24-30.6-52.251-30.6-52.251l92.943-24.26c2.24-.746,2.985-1.127,4.479,1.127,1.494,2.614,30.6,42.175,31.351,43.295ZM295.947,98.2c-2.24.374-36.2,8.956-36.2,8.956L231.754,69.075c-.746-1.127-1.494-2.24.374-2.614s33.59-5.971,35.082-6.345,2.614-.746,4.479,1.866c1.866,2.24,25.751,32.844,26.871,33.964s-.374,1.866-2.614,2.24Z" transform="translate(-0.005 0.014)" fill="#fb503b"/>
</svg>
